<?xml version="1.0" ?><!DOCTYPE svg  PUBLIC '-//W3C//DTD SVG 1.1//EN'  'http://www.w3.org/Graphics/SVG/1.1/DTD/svg11.dtd'><svg width="24px" height="24px" viewBox="0 0 24 24" enable-background="new 0 0 24 24" version="1.1" xml:space="preserve" xmlns="http://www.w3.org/2000/svg" xmlns:xlink="http://www.w3.org/1999/xlink"><g id="Layer_27"/><g id="Layer_2"/><g id="Layer_3"/><g id="Layer_4"/><g id="Layer_5"/><g id="Layer_6"/><g id="Layer_7"/><g id="Layer_8"/><g id="Layer_9"/><g id="Layer_10"/><g id="Layer_11"/><g id="Layer_12"/><g id="Layer_13"/><g id="Layer_14"><g><path d="M22,13c0,4.96-4.04,9-9,9s-9-4.04-9-9c0-4.96,4.04-9,9-9S22,8.04,22,13z" fill="#FFBF42"/></g><g><path d="M13,22c-4.9624,0-9-4.0371-9-9c0-4.9624,4.0376-9,9-9s9,4.0376,9,9C22,17.9629,17.9624,22,13,22z M13,6    c-3.8599,0-7,3.1401-7,7c0,3.8594,3.1401,7,7,7s7-3.1406,7-7C20,9.1401,16.8599,6,13,6z" fill="#D34A4B"/></g><g><path d="M13,18c-2.7568,0-5-2.2432-5-5s2.2432-5,5-5s5,2.2432,5,5S15.7568,18,13,18z M13,10    c-1.6543,0-3,1.3457-3,3s1.3457,3,3,3s3-1.3457,3-3S14.6543,10,13,10z" fill="#1777BA"/></g><path d="M13.707,12.293L7,5.5859V3c0-0.5522-0.4478-1-1-1S5,2.4478,5,3v2H3C2.4478,5,2,5.4478,2,6s0.4478,1,1,1   h2.5859l6.707,6.707C12.4883,13.9023,12.7441,14,13,14s0.5117-0.0977,0.707-0.293C14.0977,13.3164,14.0977,12.6836,13.707,12.293z" fill="#624F81"/></g><g id="Layer_15"/><g id="Layer_16"><g id="Layer_17"/></g><g id="Layer_18"/><g id="Layer_19"/><g id="Layer_20"/><g id="Layer_21"/><g id="Layer_22"/><g id="Layer_23"/><g id="Layer_24"/><g id="Layer_25"/><g id="Layer_26"/></svg>